<?xml version="1.0" encoding="iso-8859-1"?>
<!-- Generator: Adobe Illustrator 16.0.0, SVG Export Plug-In . SVG Version: 6.00 Build 0)  -->
<!DOCTYPE svg PUBLIC "-//W3C//DTD SVG 1.1//EN" "http://www.w3.org/Graphics/SVG/1.1/DTD/svg11.dtd">
<svg version="1.1" xmlns="http://www.w3.org/2000/svg" xmlns:xlink="http://www.w3.org/1999/xlink" x="0px" y="0px" width="512px"
	 height="512px" viewBox="0 0 512 512" style="enable-background:new 0 0 512 512;" xml:space="preserve">
<g id="_x36__x2C__Link_x2C__Connect_x2C__Chain_x2C__Hyperlink_x2C__web">
	<g>
		<g>
			<path style="fill:#57606F;" d="M218.51,319.47c-7.14,7.141-18.71,7.141-25.85,0l-1.36-1.359c-7.14-7.141-7.14-18.71,0-25.851
				l32.02-32.029l37.1-37.09l32.021-32.02c7.14-7.14,18.71-7.14,25.85,0l1.36,1.36c7.14,7.13,7.14,18.71,0,25.85l-32.021,32.02
				l-37.1,37.1L218.51,319.47z"/>
			<path d="M105.805,465.36c-11.122,0-21.58-4.333-29.446-12.199l-18.75-18.75c-7.866-7.866-12.199-18.324-12.199-29.446
				s4.333-21.579,12.199-29.446l118.53-118.53c14.103-14.103,36.306-16.22,52.795-5.034c4.57,3.1,5.762,9.318,2.662,13.89
				c-3.1,4.569-9.318,5.763-13.889,2.661c-8.561-5.808-20.096-4.704-27.425,2.625L71.751,389.661
				c-4.089,4.089-6.342,9.524-6.342,15.304c0,5.78,2.252,11.215,6.341,15.304l18.75,18.75c4.089,4.09,9.524,6.342,15.304,6.342
				s11.215-2.252,15.304-6.342l118.53-118.53c7.33-7.329,8.431-18.861,2.619-27.42c-3.103-4.568-1.915-10.788,2.654-13.891
				c4.569-3.102,10.788-1.914,13.891,2.654c11.197,16.488,9.085,38.693-5.022,52.799l-118.529,118.53
				C127.384,461.027,116.927,465.36,105.805,465.36z"/>
			<path d="M305.331,265.784c-8.1,0-16.236-2.352-23.319-7.161c-4.568-3.103-5.757-9.322-2.654-13.891
				c3.103-4.569,9.323-5.756,13.891-2.655c8.557,5.812,20.09,4.705,27.421-2.628l118.529-118.52
				c4.09-4.089,6.342-9.525,6.342-15.307c0-5.781-2.251-11.213-6.339-15.297l-18.753-18.753c-4.087-4.09-9.519-6.341-15.3-6.341
				c-5.782,0-11.219,2.252-15.308,6.341l-118.529,118.53c-7.33,7.33-8.432,18.862-2.619,27.421
				c3.103,4.569,1.914,10.788-2.654,13.891c-4.57,3.103-10.789,1.914-13.891-2.655c-11.197-16.487-9.085-38.693,5.021-52.8
				l118.529-118.53c7.867-7.866,18.326-12.199,29.45-12.199c11.126,0,21.583,4.333,29.445,12.202l18.747,18.747
				c7.865,7.859,12.199,18.316,12.199,29.443c0,11.124-4.333,21.583-12.199,29.45l-118.53,118.52
				C326.764,261.638,316.081,265.784,305.331,265.784z"/>
			<path d="M205.585,334.825c-7.553,0-14.654-2.942-19.997-8.285l-1.357-1.356c-11.027-11.028-11.027-28.969-0.003-39.994
				l101.141-101.141c5.342-5.342,12.443-8.284,19.996-8.284s14.654,2.942,19.996,8.284l1.358,1.358
				c5.342,5.334,8.285,12.436,8.285,19.994c0,7.555-2.941,14.658-8.283,20l-101.141,101.14
				C220.239,331.883,213.138,334.825,205.585,334.825z M305.365,195.765c-2.21,0-4.289,0.861-5.854,2.426L198.372,299.33
				c-3.229,3.229-3.229,8.481,0,11.71l1.357,1.356c1.567,1.567,3.646,2.429,5.856,2.429s4.289-0.861,5.853-2.426l101.141-101.141
				c1.564-1.564,2.426-3.645,2.426-5.857c0-2.21-0.859-4.287-2.421-5.846l-1.363-1.363
				C309.654,196.626,307.575,195.765,305.365,195.765z"/>
			<path d="M141.77,151.77c-2.559,0-5.119-0.976-7.071-2.929l-39.29-39.29c-3.905-3.905-3.905-10.237,0-14.143
				c3.905-3.905,10.237-3.905,14.143,0l39.29,39.29c3.905,3.905,3.905,10.237,0,14.143
				C146.889,150.794,144.329,151.77,141.77,151.77z"/>
			<path d="M214.063,109.842c-4.416,0-8.456-2.946-9.653-7.415l-14.38-53.67c-1.429-5.334,1.736-10.818,7.071-12.247
				c5.335-1.43,10.818,1.736,12.247,7.071l14.38,53.67c1.429,5.334-1.736,10.818-7.071,12.247
				C215.791,109.731,214.92,109.842,214.063,109.842z"/>
			<path d="M297.936,109.842c-0.856,0-1.727-0.111-2.594-0.343c-5.335-1.429-8.501-6.913-7.071-12.247l14.38-53.67
				c1.43-5.334,6.909-8.5,12.247-7.071c5.335,1.429,8.501,6.913,7.071,12.247l-14.38,53.67
				C306.392,106.896,302.351,109.842,297.936,109.842z"/>
			<path d="M412.154,224.072c-4.416,0-8.456-2.946-9.653-7.415c-1.43-5.334,1.736-10.818,7.071-12.247l53.67-14.38
				c5.333-1.432,10.817,1.736,12.247,7.071c1.43,5.334-1.736,10.818-7.071,12.247l-53.67,14.38
				C413.882,223.961,413.011,224.072,412.154,224.072z"/>
			<path d="M465.836,322.313c-0.856,0-1.727-0.111-2.594-0.344l-53.67-14.38c-5.335-1.43-8.501-6.912-7.071-12.247
				c1.43-5.334,6.91-8.5,12.247-7.071l53.67,14.38c5.335,1.43,8.501,6.912,7.071,12.247
				C474.292,319.365,470.252,322.313,465.836,322.313z"/>
			<path d="M409.73,419.73c-2.56,0-5.118-0.977-7.071-2.929l-39.5-39.5c-3.905-3.905-3.905-10.237,0-14.143
				c3.906-3.904,10.236-3.904,14.143,0l39.5,39.5c3.905,3.905,3.905,10.237,0,14.143C414.849,418.754,412.29,419.73,409.73,419.73z"
				/>
			<path d="M312.304,475.833c-4.416,0-8.456-2.947-9.653-7.415l-14.38-53.67c-1.43-5.335,1.736-10.817,7.071-12.247
				c5.332-1.431,10.818,1.736,12.247,7.071l14.38,53.67c1.43,5.335-1.736,10.817-7.071,12.247
				C314.031,475.722,313.16,475.833,312.304,475.833z"/>
			<path d="M199.696,475.833c-0.857,0-1.727-0.111-2.594-0.344c-5.335-1.43-8.5-6.912-7.071-12.247l14.38-53.67
				c1.429-5.335,6.91-8.503,12.247-7.071c5.335,1.43,8.5,6.912,7.071,12.247l-14.38,53.67
				C208.152,472.886,204.111,475.833,199.696,475.833z"/>
			<path d="M46.164,322.313c-4.416,0-8.456-2.947-9.653-7.415c-1.43-5.335,1.736-10.817,7.071-12.247l53.67-14.38
				c5.333-1.431,10.818,1.736,12.247,7.071c1.43,5.335-1.736,10.817-7.071,12.247l-53.67,14.38
				C47.891,322.201,47.02,322.313,46.164,322.313z"/>
			<path d="M99.846,224.072c-0.857,0-1.727-0.111-2.594-0.343l-53.67-14.38c-5.335-1.429-8.501-6.913-7.071-12.247
				c1.429-5.335,6.912-8.503,12.247-7.071l53.67,14.38c5.335,1.429,8.501,6.913,7.071,12.247
				C108.302,221.125,104.261,224.072,99.846,224.072z"/>
		</g>
	</g>
</g>
<g id="Layer_1">
</g>
</svg>
